<svg width="555" height="283" viewBox="0 0 555 283" fill="none" xmlns="http://www.w3.org/2000/svg">
<path fill-rule="evenodd" clip-rule="evenodd" d="M327.863 154.909H268.723V154.898L313.936 104.181C316.56 101.312 319.085 98.2822 321.499 95.1027C323.907 91.9176 326.049 88.4995 327.936 84.8372C329.845 81.1027 331.364 77.181 332.469 73.1346C333.607 69.0006 334.178 64.5726 334.178 59.8727C334.178 50.717 332.319 42.4658 328.59 35.0968C324.955 27.8505 319.851 21.4404 313.603 16.2749C307.338 11.0867 300.091 7.07486 291.851 4.24491C283.616 1.42052 274.816 0 265.96 0C257.104 0 248.78 1.5204 240.979 4.5723C233.388 7.49324 226.428 11.8426 220.475 17.3847C214.559 22.9396 209.822 29.6297 206.548 37.0556C203.124 44.6853 201.415 53.0642 201.415 62.2199V69.0173C201.428 70.3599 201.867 71.6637 202.669 72.7406C203.501 73.917 205.011 74.5052 207.202 74.5052H240.845C242.948 74.5052 244.569 73.8116 245.712 72.4132C246.849 71.0205 247.421 69.6277 247.421 68.2293V61.038C247.421 58.602 247.948 56.2271 249.002 53.9187C250.033 51.6401 251.457 49.5608 253.208 47.7761C254.96 45.9887 257.033 44.5468 259.318 43.5256C261.637 42.4769 264.118 41.9553 266.748 41.9553C269.118 41.9559 271.472 42.3536 273.712 43.1316C275.964 43.9032 278.056 45.0784 279.888 46.5997C281.756 48.1615 283.278 50.097 284.354 52.2818C285.492 54.5513 286.069 57.1704 286.069 60.128C286.069 62.4862 285.758 64.617 285.148 66.5369C284.526 68.4513 283.045 70.7597 280.676 73.462L200.899 168.237C200.283 169.375 199.972 170.546 199.972 171.766V191.243C199.972 192.991 200.677 194.534 202.081 195.882C203.479 197.241 205.011 197.913 206.675 197.913H327.73C328.574 197.922 329.41 197.738 330.172 197.376C330.935 197.013 331.605 196.481 332.13 195.821C333.312 194.434 333.906 192.908 333.906 191.249V160.791C333.906 158.788 333.335 157.306 332.197 156.346C331.06 155.386 329.611 154.909 327.863 154.909ZM468.151 154.981H409.005L409 154.975L454.212 104.258C456.837 101.39 459.361 98.3599 461.775 95.1804C464.183 91.9898 466.325 88.5772 468.212 84.9149C470.121 81.1803 471.641 77.2586 472.745 73.2123C473.883 69.0783 474.454 64.6503 474.454 59.9448C474.454 50.7947 472.596 42.5435 468.867 35.1745C465.233 27.9286 460.131 21.5186 453.885 16.3526C447.62 11.1644 440.367 7.15254 432.133 4.3226C423.898 1.49266 415.098 0.0776847 406.242 0.0776847C397.391 0.0776847 389.068 1.59254 381.266 4.64443C373.675 7.56716 366.715 11.9184 360.763 17.4624C354.844 23.0169 350.106 29.707 346.83 37.1333C343.411 44.763 341.708 53.1419 341.708 62.2976V69.095C341.719 70.437 342.156 71.7407 342.956 72.8183C343.789 73.9947 345.298 74.5828 347.49 74.5828H381.133C383.236 74.5828 384.856 73.8837 385.999 72.4909C387.137 71.0981 387.708 69.6998 387.708 68.307V61.1157C387.708 58.6797 388.235 56.3047 389.29 53.9909C390.32 51.7121 391.744 49.6328 393.496 47.8482C395.248 46.0629 397.321 44.6229 399.605 43.6033C401.925 42.5546 404.405 42.033 407.035 42.033C409.406 42.0336 411.76 42.4312 413.999 43.2093C416.251 43.9809 418.344 45.1561 420.175 46.6774C422.046 48.2386 423.569 50.1741 424.647 52.3595C425.785 54.629 426.356 57.2425 426.356 60.2056C426.356 62.5584 426.046 64.6947 425.435 66.6091C424.814 68.529 423.332 70.8373 420.963 73.5341L341.186 168.309C340.57 169.447 340.26 170.623 340.26 171.844V191.321C340.26 193.063 340.964 194.611 342.368 195.96C343.767 197.319 345.298 197.991 346.963 197.991H468.018C468.862 198 469.697 197.816 470.46 197.453C471.222 197.091 471.892 196.559 472.418 195.899C473.6 194.506 474.194 192.98 474.194 191.326V160.863C474.194 158.865 473.622 157.384 472.485 156.424C471.347 155.458 469.899 154.981 468.151 154.981ZM485.885 15.6368C482.029 17.7232 480.103 20.4255 480.103 23.7382L480.098 23.7327V51.8379C480.063 53.3908 480.549 54.9107 481.479 56.1549C483.31 58.5687 487.15 57.5033 487.594 57.3258L505.595 48.4419V192.503C505.607 193.847 506.046 195.153 506.849 196.232C507.681 197.402 509.191 197.996 511.382 197.996H548.71C552.827 197.996 554.88 196.076 554.88 192.236V9.6218C554.88 7.87945 554.27 6.49222 553.049 5.43793C551.801 4.38361 550.21 3.82472 548.577 3.86759H518.873C515.455 3.86759 512.653 4.00076 510.461 4.26711C508.269 4.52236 506.033 5.39354 503.758 6.87509L485.885 15.6368ZM190.927 267.363C190.589 267.729 190.423 268.212 190.423 268.822L190.417 279.848C190.417 281.246 191.088 281.94 192.437 281.94H204.572C205.271 281.94 205.804 281.729 206.154 281.302C206.498 280.896 206.685 280.38 206.681 279.848V268.822C206.681 268.212 206.459 267.729 206.015 267.363C205.614 267.015 205.103 266.822 204.572 266.819H192.442C191.771 266.819 191.266 266.997 190.927 267.363ZM251.1 263.562C250.66 263.666 250.246 263.861 249.885 264.134L249.896 264.122C248.514 265.071 247.066 265.837 245.54 266.447C244.014 267.058 242.377 267.363 240.64 267.363C238.859 267.385 237.094 267.026 235.462 266.311C233.831 265.596 232.371 264.542 231.179 263.218C230.031 261.942 229.137 260.427 228.499 258.684C227.855 256.942 227.534 255 227.534 253.058C227.525 251.162 227.852 249.28 228.499 247.498C229.137 245.739 230.031 244.185 231.179 242.853C232.328 241.522 233.71 240.467 235.324 239.691C236.945 238.914 238.72 238.525 240.64 238.525C242.316 238.518 243.98 238.805 245.556 239.374C247.077 239.928 248.529 240.654 249.885 241.538C250.295 241.832 250.743 242.069 251.216 242.243C251.542 242.366 251.884 242.435 252.232 242.448C253.453 242.448 254.485 241.705 255.339 240.212L259.418 233.332C259.784 232.789 259.977 232.149 259.97 231.494C259.963 230.84 259.757 230.203 259.379 229.669C258.941 229.103 258.394 228.632 257.77 228.282L257.908 228.415C255.439 226.684 252.787 225.38 249.962 224.498C247.132 223.615 244.064 223.171 240.734 223.171C237.988 223.171 235.335 223.527 232.788 224.226C227.817 225.571 223.28 228.182 219.621 231.806C217.784 233.609 216.23 235.612 214.949 237.809C212.266 242.441 210.858 247.7 210.87 253.052C210.862 255.771 211.226 258.478 211.952 261.098C212.642 263.607 213.649 266.018 214.949 268.273C216.227 270.486 217.796 272.516 219.615 274.31C221.429 276.105 223.461 277.665 225.664 278.955C227.896 280.259 230.292 281.261 232.788 281.934C235.378 282.64 238.051 282.995 240.734 282.989C243.953 283.006 247.151 282.473 250.19 281.413C253.102 280.398 255.866 278.998 258.408 277.251C258.929 276.918 259.407 276.53 259.85 276.086C260.294 275.647 260.516 275.081 260.516 274.382C260.498 274.127 260.428 273.878 260.311 273.65C260.172 273.35 260.028 273.078 259.873 272.834L254.745 265.132C254.285 264.433 253.841 263.984 253.414 263.767C252.986 263.562 252.509 263.451 251.988 263.451C251.689 263.462 251.392 263.499 251.1 263.562ZM264.559 241.558C263.052 245.206 262.284 249.117 262.298 253.063C262.289 255.782 262.659 258.489 263.385 261.109C264.08 263.619 265.097 266.029 266.409 268.279C268.358 271.624 270.946 274.554 274.027 276.899C277.108 279.244 280.621 280.959 284.366 281.945C286.94 282.645 289.67 283 292.445 283C297.766 283.021 302.997 281.629 307.604 278.966C312.049 276.396 315.749 272.715 318.341 268.284C321.05 263.673 322.466 258.417 322.442 253.069C322.442 248.852 321.66 244.923 320.084 241.294C318.573 237.754 316.398 234.537 313.675 231.817C310.967 229.125 307.787 227.017 304.147 225.48C300.496 223.948 296.595 223.183 292.439 223.183C287.078 223.166 281.806 224.547 277.141 227.189C274.923 228.454 272.884 230.009 271.076 231.811C268.281 234.598 266.066 237.91 264.559 241.558ZM279.954 258.69C279.327 256.948 279.016 255.061 279.016 253.063C279.004 251.17 279.32 249.289 279.949 247.503C280.576 245.744 281.463 244.191 282.612 242.859C283.75 241.527 285.142 240.473 286.774 239.696C288.411 238.919 290.308 238.531 292.295 238.531C294.095 238.498 295.88 238.87 297.518 239.619C299.155 240.368 300.604 241.475 301.756 242.859C302.892 244.234 303.761 245.809 304.319 247.503C304.913 249.262 305.207 251.06 305.207 253.063C305.207 255.067 304.913 256.942 304.319 258.69C303.726 260.443 302.866 261.942 301.756 263.218C300.578 264.558 299.12 265.624 297.485 266.34C295.851 267.057 294.079 267.406 292.295 267.363C290.247 267.363 288.405 266.997 286.774 266.253C285.142 265.51 283.755 264.5 282.607 263.223C281.463 261.947 280.576 260.432 279.954 258.69ZM328.129 224.876C328.116 224.887 328.103 224.897 328.091 224.908L328.108 224.886L328.129 224.876ZM328.129 224.876L328.385 224.753C327.929 225.024 327.556 225.416 327.309 225.885C327.048 226.368 326.92 226.9 326.92 227.477V278.416C326.873 279.346 327.182 280.26 327.786 280.969C328.368 281.607 329.317 281.923 330.627 281.923H340.981C341.39 281.929 341.799 281.883 342.196 281.785C342.594 281.674 342.974 281.506 343.323 281.285C343.732 280.991 344.042 280.578 344.21 280.103C344.407 279.609 344.508 279.082 344.51 278.55V248.486C344.604 247.121 344.932 245.878 345.492 244.746C346.024 243.669 346.737 242.693 347.601 241.86C348.444 241.056 349.388 240.434 350.442 239.99C351.496 239.557 352.573 239.335 353.671 239.335C354.861 239.318 356.04 239.558 357.128 240.04C358.131 240.496 359.023 241.164 359.742 241.999C360.474 242.865 361.033 243.863 361.39 244.94C361.78 246.115 361.973 247.347 361.961 248.585V278.699C361.961 279.976 362.2 280.836 362.694 281.268C363.177 281.712 364.081 281.934 365.391 281.934H375.972C377.066 281.934 377.87 281.635 378.375 281.047C378.875 280.458 379.13 279.587 379.13 278.427V248.591C379.114 247.304 379.356 246.027 379.84 244.834C380.692 242.678 382.364 240.948 384.49 240.023C385.528 239.574 386.626 239.341 387.786 239.341C389.073 239.341 390.239 239.58 391.293 240.051C392.316 240.503 393.228 241.171 393.968 242.01C394.718 242.875 395.302 243.872 395.688 244.951C396.104 246.077 396.309 247.287 396.309 248.597V278.705C396.309 279.987 396.553 280.841 397.042 281.28C397.524 281.724 398.429 281.945 399.744 281.945H410.315C411.419 281.945 412.223 281.646 412.723 281.058C413.228 280.469 413.477 279.593 413.477 278.439V248.602C413.477 245.112 412.978 241.827 411.99 238.747C410.992 235.673 409.543 232.982 407.634 230.679C405.726 228.376 403.406 226.556 400.676 225.225C397.941 223.893 394.833 223.227 391.354 223.227C389.151 223.227 387.148 223.527 385.328 224.115C383.508 224.709 381.899 225.458 380.489 226.362C378.078 227.902 376.032 229.952 374.496 232.366C372.604 229.575 370.19 227.361 367.261 225.707C364.325 224.054 360.907 223.227 357.001 223.227C354.559 223.227 352.517 223.588 350.886 224.298C348.043 225.483 345.684 227.595 344.194 230.291C343.539 231.484 342.979 232.555 342.524 233.492L341.103 227.677C340.953 227.222 340.787 226.784 340.62 226.362C340.454 225.935 340.232 225.557 339.954 225.225C339.677 224.893 339.333 224.622 338.945 224.431C338.551 224.231 338.073 224.131 337.524 224.131H330.61C330.211 224.131 329.794 224.176 329.35 224.27C328.901 224.372 328.482 224.58 328.129 224.876ZM420.314 267.363C419.981 267.729 419.814 268.212 419.814 268.822V279.848C419.814 281.246 420.486 281.94 421.834 281.94H433.958C434.658 281.94 435.19 281.729 435.545 281.302C435.888 280.895 436.073 280.379 436.067 279.848V268.822C436.067 268.212 435.851 267.729 435.401 267.363C434.957 266.997 434.48 266.819 433.958 266.819H421.834C421.163 266.819 420.658 266.997 420.314 267.363ZM502.227 280.059C502.408 279.586 502.5 279.084 502.499 278.577L502.504 227.239C502.504 226.689 502.41 226.201 502.227 225.779C502.044 225.352 501.738 224.969 501.311 224.636C500.986 224.309 500.571 224.087 500.118 223.998C499.663 223.909 499.264 223.865 498.931 223.865H492.105C491.49 223.865 491.018 223.904 490.685 223.976C490.364 224.041 490.068 224.2 489.836 224.431C489.556 224.734 489.338 225.088 489.192 225.474C488.993 225.946 488.743 226.562 488.438 227.322L486.656 232.832C485.835 231.645 484.892 230.479 483.838 229.325C482.789 228.171 481.607 227.139 480.308 226.229C479.01 225.313 477.573 224.575 475.98 224.02C474.393 223.454 472.651 223.177 470.764 223.177C466.841 223.146 462.951 223.894 459.318 225.376C455.686 226.858 452.383 229.045 449.601 231.811C446.892 234.535 444.73 237.752 443.231 241.289C441.671 244.918 440.895 248.841 440.895 253.058C440.882 255.775 441.237 258.482 441.949 261.104C443.303 266.099 445.939 270.653 449.595 274.316C453.248 277.96 457.789 280.588 462.768 281.94C465.315 282.639 467.984 282.994 470.764 282.994C472.266 283.003 473.756 282.732 475.159 282.195C476.504 281.682 477.786 281.02 478.982 280.22C480.159 279.426 481.235 278.572 482.212 277.645C483.188 276.718 484.087 275.847 484.909 275.026L486.24 278.439L486.767 279.881C486.912 280.282 487.12 280.656 487.383 280.991C487.639 281.307 487.971 281.551 488.349 281.701C488.846 281.884 489.373 281.969 489.903 281.951H498.925C499.326 281.944 499.726 281.898 500.118 281.812C500.572 281.723 500.988 281.499 501.311 281.169C501.729 280.908 502.05 280.518 502.227 280.059ZM458.329 258.696C457.697 256.948 457.386 255.067 457.386 253.069C457.378 251.175 457.691 249.294 458.324 247.509C458.951 245.75 459.839 244.196 461.004 242.865C462.164 241.527 463.562 240.479 465.193 239.702C466.825 238.925 468.578 238.536 470.62 238.536C472.58 238.52 474.522 238.917 476.319 239.702C478.038 240.447 479.595 241.522 480.902 242.865C483.548 245.604 485.032 249.261 485.042 253.069C485.042 255.072 484.681 256.948 483.943 258.69C483.211 260.443 482.195 261.953 480.897 263.229C478.146 265.902 474.456 267.388 470.62 267.368C468.639 267.368 466.825 267.002 465.199 266.259C463.592 265.543 462.152 264.501 460.969 263.199C459.786 261.897 458.887 260.364 458.329 258.696ZM509.413 225.979C509.179 226.451 509.068 226.945 509.068 227.461V278.444C509.068 280.78 510.256 281.951 512.642 281.951H522.952C524.267 281.951 525.199 281.651 525.771 281.063C526.331 280.469 526.62 279.598 526.62 278.444V245.461C527.216 244.491 527.856 243.548 528.54 242.637C529.138 241.83 529.829 241.097 530.598 240.451C531.331 239.84 532.146 239.369 533.051 239.036C533.95 238.697 534.993 238.531 536.186 238.531C537.786 238.502 539.373 238.822 540.836 239.469C542.19 240.096 543.527 241.039 544.842 242.315C545.727 242.782 546.747 242.928 547.728 242.726C548.667 242.475 549.472 241.87 549.975 241.039L554.137 233.981C555.452 231.761 555.052 230.096 552.944 228.97C551.595 227.999 550.358 227.15 549.209 226.418C548.066 225.691 546.912 225.091 545.758 224.62C544.593 224.148 543.366 223.793 542.068 223.549C540.769 223.305 539.238 223.183 537.645 223.183C536.058 223.183 534.688 223.482 533.528 224.093C532.363 224.697 531.309 225.469 530.365 226.412C529.416 227.355 528.523 228.382 527.685 229.492C526.847 230.601 525.97 231.65 525.055 232.655L524.666 231.672L524.051 230.08L523.457 228.526L523.091 227.638C522.846 227.217 522.636 226.789 522.469 226.362C522.303 225.935 522.108 225.557 521.881 225.225C521.648 224.892 521.365 224.62 521.032 224.403C520.609 224.172 520.131 224.063 519.65 224.087H512.736C511.853 224.096 510.992 224.366 510.262 224.864C509.901 225.17 509.611 225.55 509.413 225.979ZM13.6731 50.6286C4.67059 65.9178 -0.0520089 83.3477 0.000573832 101.09C-0.0331875 110.078 1.16164 119.028 3.55187 127.692C5.85502 136.036 9.26062 144.036 13.6786 151.48C22.4582 166.257 34.8505 178.56 49.691 187.232C65.0807 196.217 82.5984 200.912 100.419 200.826C118.237 200.876 135.747 196.184 151.153 187.232C158.558 182.911 165.383 177.663 171.462 171.617C183.715 159.459 192.594 144.321 197.225 127.692C199.628 119.191 200.832 110.24 200.832 101.09C200.832 91.9402 199.628 83.0952 197.22 74.5499C192.59 57.8445 183.714 42.6221 171.456 30.364C165.398 24.2921 158.57 19.0407 151.147 14.7438C143.589 10.3847 135.508 7.00241 127.098 4.67809C118.503 2.28096 109.697 1.0824 100.414 1.0824C91.3757 1.05047 82.3764 2.26034 73.6679 4.67809C65.2816 7.00956 57.2236 10.3916 49.6855 14.7438C42.2607 19.0382 35.4325 24.2899 29.3765 30.364C23.3134 36.434 18.0376 43.2423 13.6731 50.6286ZM53.5586 121.416C50.9728 115.096 49.6799 108.282 49.6799 100.957C49.6381 93.9509 50.9553 87.0031 53.5586 80.4983C56.0212 74.2846 59.6593 68.6041 64.2736 63.7684C68.8497 59.0036 74.3171 55.1839 80.3654 52.5263C86.5413 49.7741 93.3554 48.4035 100.541 48.4035C107.48 48.3547 114.353 49.7591 120.717 52.5263C126.819 55.1614 132.336 58.9828 136.948 63.7684C141.568 68.6125 145.226 74.2897 147.729 80.4983C150.381 86.9906 151.72 93.9442 151.669 100.957C151.669 108.276 150.354 115.096 147.729 121.416C145.211 127.559 141.553 133.169 136.948 137.952C132.331 142.699 126.813 146.476 120.717 149.061C114.452 151.763 107.816 153.111 100.541 153.111C93.2666 153.111 86.5413 151.763 80.3654 149.061C74.3216 146.452 68.8515 142.677 64.268 137.952C59.6692 133.179 56.0332 127.565 53.5586 121.416Z" fill="white"/>
</svg>
